<svg viewBox="-0.5 -0.5 331 331" preserveAspectRatio="xMidYMin meet" data-height="331.5" data-width="331.5" style="max-height:331.5px; max-width:331.5px" xmlns="http://www.w3.org/2000/svg">
	<g id="cx-0-6">
		<rect x="180" y="0" width="30" height="30">
		</rect>
		<text dy="1em" class="cx-c" x="182.0" y="2.0">
			1
		</text>
		<text dy=".28em" class="cx-a" x="195.0" y="15.0">
		</text>
	</g>
	<g id="cx-1-0">
		<rect x="0" y="30" width="30" height="30">
		</rect>
		<text dy="1em" class="cx-c" x="2.0" y="32.0">
			2
		</text>
		<text dy=".28em" class="cx-a" x="15.0" y="45.0">
		</text>
	</g>
	<g id="cx-1-1">
		<rect x="30" y="30" width="30" height="30">
		</rect>
		<text dy=".28em" class="cx-a" x="45.0" y="45.0">
		</text>
	</g>
	<g id="cx-1-2">
		<rect x="60" y="30" width="30" height="30">
		</rect>
		<text dy=".28em" class="cx-a" x="75.0" y="45.0">
		</text>
	</g>
	<g id="cx-1-3">
		<rect x="90" y="30" width="30" height="30">
		</rect>
		<text dy=".28em" class="cx-a" x="105.0" y="45.0">
		</text>
	</g>
	<g id="cx-1-4">
		<rect x="120" y="30" width="30" height="30">
		</rect>
		<text dy=".28em" class="cx-a" x="135.0" y="45.0">
		</text>
	</g>
	<g id="cx-1-5">
		<rect x="150" y="30" width="30" height="30">
		</rect>
		<text dy=".28em" class="cx-a" x="165.0" y="45.0">
		</text>
	</g>
	<g id="cx-1-6">
		<rect x="180" y="30" width="30" height="30">
		</rect>
		<text dy=".28em" class="cx-a" x="195.0" y="45.0">
		</text>
	</g>
	<g id="cx-2-6">
		<rect x="180" y="60" width="30" height="30">
		</rect>
		<text dy=".28em" class="cx-a" x="195.0" y="75.0">
		</text>
	</g>
	<g id="cx-2-9">
		<rect x="270" y="60" width="30" height="30">
		</rect>
		<text dy="1em" class="cx-c" x="272.0" y="62.0">
			3
		</text>
		<text dy=".28em" class="cx-a" x="285.0" y="75.0">
		</text>
	</g>
	<g id="cx-3-4">
		<rect x="120" y="90" width="30" height="30">
		</rect>
		<text dy="1em" class="cx-c" x="122.0" y="92.0">
			4
		</text>
		<text dy=".28em" class="cx-a" x="135.0" y="105.0">
		</text>
	</g>
	<g id="cx-3-5">
		<rect x="150" y="90" width="30" height="30">
		</rect>
		<text dy=".28em" class="cx-a" x="165.0" y="105.0">
		</text>
	</g>
	<g id="cx-3-6">
		<rect x="180" y="90" width="30" height="30">
		</rect>
		<text dy=".28em" class="cx-a" x="195.0" y="105.0">
		</text>
	</g>
	<g id="cx-3-7">
		<rect x="210" y="90" width="30" height="30">
		</rect>
		<text dy=".28em" class="cx-a" x="225.0" y="105.0">
		</text>
	</g>
	<g id="cx-3-8">
		<rect x="240" y="90" width="30" height="30">
		</rect>
		<text dy=".28em" class="cx-a" x="255.0" y="105.0">
		</text>
	</g>
	<g id="cx-3-9">
		<rect x="270" y="90" width="30" height="30">
		</rect>
		<text dy=".28em" class="cx-a" x="285.0" y="105.0">
		</text>
	</g>
	<g id="cx-4-6">
		<rect x="180" y="120" width="30" height="30">
		</rect>
		<text dy=".28em" class="cx-a" x="195.0" y="135.0">
		</text>
	</g>
	<g id="cx-4-9">
		<rect x="270" y="120" width="30" height="30">
		</rect>
		<text dy=".28em" class="cx-a" x="285.0" y="135.0">
		</text>
	</g>
	<g id="cx-5-3">
		<rect x="90" y="150" width="30" height="30">
		</rect>
		<text dy="1em" class="cx-c" x="92.0" y="152.0">
			5
		</text>
		<text dy=".28em" class="cx-a" x="105.0" y="165.0">
		</text>
	</g>
	<g id="cx-5-4">
		<rect x="120" y="150" width="30" height="30">
		</rect>
		<text dy=".28em" class="cx-a" x="135.0" y="165.0">
		</text>
	</g>
	<g id="cx-5-5">
		<rect x="150" y="150" width="30" height="30">
		</rect>
		<text dy=".28em" class="cx-a" x="165.0" y="165.0">
		</text>
	</g>
	<g id="cx-5-6">
		<rect x="180" y="150" width="30" height="30">
		</rect>
		<text dy=".28em" class="cx-a" x="195.0" y="165.0">
		</text>
	</g>
	<g id="cx-5-7">
		<rect x="210" y="150" width="30" height="30">
		</rect>
		<text dy=".28em" class="cx-a" x="225.0" y="165.0">
		</text>
	</g>
	<g id="cx-5-8">
		<rect x="240" y="150" width="30" height="30">
		</rect>
		<text dy=".28em" class="cx-a" x="255.0" y="165.0">
		</text>
	</g>
	<g id="cx-5-9">
		<rect x="270" y="150" width="30" height="30">
		</rect>
		<text dy=".28em" class="cx-a" x="285.0" y="165.0">
		</text>
	</g>
	<g id="cx-5-10">
		<rect x="300" y="150" width="30" height="30">
		</rect>
		<text dy=".28em" class="cx-a" x="315.0" y="165.0">
		</text>
	</g>
	<g id="cx-6-6">
		<rect x="180" y="180" width="30" height="30">
		</rect>
		<text dy=".28em" class="cx-a" x="195.0" y="195.0">
		</text>
	</g>
	<g id="cx-6-9">
		<rect x="270" y="180" width="30" height="30">
		</rect>
		<text dy=".28em" class="cx-a" x="285.0" y="195.0">
		</text>
	</g>
	<g id="cx-7-6">
		<rect x="180" y="210" width="30" height="30">
		</rect>
		<text dy=".28em" class="cx-a" x="195.0" y="225.0">
		</text>
	</g>
	<g id="cx-7-9">
		<rect x="270" y="210" width="30" height="30">
		</rect>
		<text dy=".28em" class="cx-a" x="285.0" y="225.0">
		</text>
	</g>
	<g id="cx-8-6">
		<rect x="180" y="240" width="30" height="30">
		</rect>
		<text dy=".28em" class="cx-a" x="195.0" y="255.0">
		</text>
	</g>
	<g id="cx-9-5">
		<rect x="150" y="270" width="30" height="30">
		</rect>
		<text dy="1em" class="cx-c" x="152.0" y="272.0">
			6
		</text>
		<text dy=".28em" class="cx-a" x="165.0" y="285.0">
		</text>
	</g>
	<g id="cx-9-6">
		<rect x="180" y="270" width="30" height="30">
		</rect>
		<text dy=".28em" class="cx-a" x="195.0" y="285.0">
		</text>
	</g>
	<g id="cx-9-7">
		<rect x="210" y="270" width="30" height="30">
		</rect>
		<text dy=".28em" class="cx-a" x="225.0" y="285.0">
		</text>
	</g>
	<g id="cx-9-8">
		<rect x="240" y="270" width="30" height="30">
		</rect>
		<text dy=".28em" class="cx-a" x="255.0" y="285.0">
		</text>
	</g>
	<g id="cx-9-9">
		<rect x="270" y="270" width="30" height="30">
		</rect>
		<text dy=".28em" class="cx-a" x="285.0" y="285.0">
		</text>
	</g>
	<g id="cx-10-6">
		<rect x="180" y="300" width="30" height="30">
		</rect>
		<text dy=".28em" class="cx-a" x="195.0" y="315.0">
		</text>
	</g>
</svg>
